# File created by Blade
# Date/Time:  Wed Sep 24 19:42:34 2014
# Frame Rate: 120.000 fps
#------------------------------------------------------
:FULLY-SPECIFIED
:DEGREES
3521
root -4.395011 32.991062 -3.711987 10.153652 2.539810 -0.726044
Spine -9.788675 6.098768 2.944309
Head -10.418385 -3.344247 6.163775
LeftShoulder -16.956951 21.843053 23.245131
LeftArm 20.974941 -23.854178 -33.485740
LeftForeArm 17.024103 -0.000000 14.816538
LeftHand -28.095382 -0.000000 -7.386264
LeftHandThumb1 -26.253704 0.000000 33.147579
RightShoulder 339.533748 14.982655 317.331262
RightArm -11.377928 12.060721 27.335967
RightForeArm -33.037249 -0.000000 17.380008
RightHand -13.243671 -0.000000 16.698821
RightHandThumb1 -24.326973 -0.000000 -32.862282
LeftUpLeg -5.380635 4.782666 3.883910
LeftLeg -1.390877 -0.000000 0.000000
LeftFoot -7.873385 4.340480 -18.965997
LeftToeBase 10.459993 -0.000000 -0.000000
RightUpLeg -7.100603 -7.563255 -1.202865
RightLeg 2.025345 -0.000000 -0.000000
RightFoot -6.405726 -5.743633 -16.010432
RightToeBase 1.219484 -0.000000 -0.000000
3522
root -4.396986 32.990697 -3.711864 10.126258 2.523724 -0.733720
Spine -9.779554 6.106083 2.952659
Head -10.475960 -3.443839 6.344916
LeftShoulder -16.937998 21.838613 23.245121
LeftArm 20.981924 -23.806843 -33.427334
LeftForeArm 16.997688 -0.000000 14.867221
LeftHand -28.008196 -0.000000 -7.367302
LeftHandThumb1 -26.253704 0.000000 33.147579
RightShoulder 339.568880 15.012937 317.343561
RightArm -11.351464 12.048416 27.327395
RightForeArm -33.047158 -0.000000 17.375828
RightHand -13.260144 0.000000 16.623804
RightHandThumb1 -24.326973 -0.000000 -32.862282
LeftUpLeg -5.352927 4.776325 3.895718
LeftLeg -1.385362 -0.000000 0.000000
LeftFoot -7.892798 4.365898 -18.934909
LeftToeBase 10.450316 -0.000000 -0.000000
RightUpLeg -7.078243 -7.545411 -1.198741
RightLeg 2.028805 -0.000000 -0.000000
RightFoot -6.406648 -5.741040 -16.004427
RightToeBase 1.199343 -0.000000 -0.000000
3523
root -4.397792 32.990132 -3.711240 10.096981 2.509829 -0.730411
Spine -9.769476 6.120581 2.949985
Head -10.515307 -3.532705 6.476055
LeftShoulder -16.933796 21.851900 23.240834
LeftArm 21.055332 -23.776189 -33.405986
LeftForeArm 16.957689 -0.000000 14.935175
LeftHand -28.711002 0.000000 -7.211825
LeftHandThumb1 -26.253704 0.000000 33.147579
RightShoulder 339.586779 15.030930 317.357303
RightArm -11.297755 12.034739 27.317931
RightForeArm -32.984474 -0.000000 17.352522
RightHand -13.306136 -0.000000 16.554681
RightHandThumb1 -24.326973 -0.000000 -32.862282
LeftUpLeg -5.325845 4.755253 3.894304
LeftLeg -1.371197 -0.000000 0.000000
LeftFoot -7.925843 4.406082 -18.929349
LeftToeBase 10.451409 -0.000000 -0.000000
RightUpLeg -7.056084 -7.550143 -1.202147
RightLeg 2.043053 -0.000000 -0.000000
RightFoot -6.418489 -5.745146 -16.065992
RightToeBase 1.239689 -0.000000 -0.000000
3524
root -4.400757 32.990027 -3.710197 10.070354 2.498403 -0.740923
Spine -9.770681 6.139074 2.951255
Head -10.568333 -3.664999 6.628553
LeftShoulder -16.897149 21.842051 23.250490
LeftArm 21.071179 -23.774570 -33.370085
LeftForeArm 16.913576 -0.000000 15.001267
LeftHand -28.794476 -0.000000 -7.149975
LeftHandThumb1 -26.253704 0.000000 33.147579
RightShoulder 339.613241 15.037210 317.365167
RightArm -11.270175 12.044025 27.329745
RightForeArm -32.985402 -0.000000 17.357230
RightHand -13.285511 -0.000000 16.520830
RightHandThumb1 -24.326973 -0.000000 -32.862282
LeftUpLeg -5.303491 4.764143 3.910407
LeftLeg -1.355690 -0.000000 0.000000
LeftFoot -7.936068 4.397275 -18.960310
LeftToeBase 10.450598 -0.000000 -0.000000
RightUpLeg -7.036096 -7.545414 -1.191705
RightLeg 2.055725 -0.000000 -0.000000
RightFoot -6.423468 -5.727684 -16.028792
RightToeBase 1.224432 -0.000000 -0.000000
3525
root -4.403847 32.989872 -3.709322 10.036270 2.491268 -0.752793
Spine -9.745527 6.148347 2.947496
Head -10.651166 -3.780427 6.795392
LeftShoulder -16.897367 21.816174 23.269392
LeftArm 21.104413 -23.751253 -33.355466
LeftForeArm 17.014824 0.000000 15.116803
LeftHand -28.984673 -0.000000 -7.190312
LeftHandThumb1 -26.253704 0.000000 33.147579
RightShoulder 339.612589 15.066566 317.387517
RightArm -11.215267 11.990314 27.335233
RightForeArm -32.944700 -0.000000 17.326974
RightHand -13.243192 -0.000000 16.389432
RightHandThumb1 -24.326973 -0.000000 -32.862282
LeftUpLeg -5.274157 4.755155 3.930608
LeftLeg -1.339439 -0.000000 0.000000
LeftFoot -7.960610 4.412722 -18.945287
LeftToeBase 10.466554 -0.000000 -0.000000
RightUpLeg -7.003588 -7.554302 -1.178518
RightLeg 2.055900 -0.000000 -0.000000
RightFoot -6.433157 -5.707553 -16.051235
RightToeBase 1.216141 -0.000000 -0.000000
3526
root -4.407450 32.989674 -3.708313 10.005710 2.482825 -0.764081
Spine -9.734848 6.170591 2.937112
Head -10.698528 -3.914988 6.954358
LeftShoulder -16.880451 21.782583 23.301738
LeftArm 21.157508 -23.716791 -33.326004
LeftForeArm 16.867225 -0.000000 15.092385
LeftHand -28.878252 -0.000000 -7.081927
LeftHandThumb1 -26.253704 0.000000 33.147579
RightShoulder 339.625339 15.076594 317.392072
RightArm -11.198751 11.974356 27.357601
RightForeArm -32.968548 -0.000000 17.348066
RightHand -13.214888 -0.000000 16.456952
RightHandThumb1 -24.326973 -0.000000 -32.862282
LeftUpLeg -5.250293 4.752959 3.948055
LeftLeg -1.322031 -0.000000 0.000000
LeftFoot -7.966738 4.416383 -18.940371
LeftToeBase 10.401380 -0.000000 -0.000000
RightUpLeg -6.978024 -7.554777 -1.166085
RightLeg 2.067289 -0.000000 -0.000000
RightFoot -6.435132 -5.692046 -16.038175
RightToeBase 1.210422 -0.000000 -0.000000
3527
root -4.410420 32.989899 -3.708357 9.980232 2.479599 -0.774276
Spine -9.734371 6.172308 2.928619
Head -10.726230 -4.022446 7.088953
LeftShoulder -16.847231 21.729360 23.330080
LeftArm 21.167661 -23.732608 -33.305456
LeftForeArm 16.921525 -0.000000 15.117509
LeftHand -28.852394 -0.000000 -7.091097
LeftHandThumb1 -26.253704 0.000000 33.147579
RightShoulder 339.667823 15.102849 317.395706
RightArm -11.208534 11.957183 27.381813
RightForeArm -33.050469 0.000000 17.389655
RightHand -13.292833 -0.000000 16.508485
RightHandThumb1 -24.326973 -0.000000 -32.862282
LeftUpLeg -5.232956 4.728598 3.966157
LeftLeg -1.301367 -0.000000 0.000000
LeftFoot -8.001914 4.450897 -18.933471
LeftToeBase 10.460482 -0.000000 -0.000000
RightUpLeg -6.956695 -7.545095 -1.155700
RightLeg 2.072189 -0.000000 -0.000000
RightFoot -6.430961 -5.690835 -16.015789
RightToeBase 1.178449 -0.000000 -0.000000
3528
root -4.414847 32.989976 -3.707569 9.950453 2.471243 -0.791450
Spine -9.728378 6.182851 2.922441
Head -10.760969 -4.131374 7.209953
LeftShoulder -16.803529 21.681673 23.362457
LeftArm 21.159324 -23.773677 -33.293709
LeftForeArm 16.938195 0.000000 15.166057
LeftHand -28.773331 -0.000000 -7.109316
LeftHandThumb1 -26.253704 0.000000 33.147579
RightShoulder 339.698759 15.116122 317.419615
RightArm -11.170789 11.925481 27.398275
RightForeArm -33.039233 -0.000000 17.367032
RightHand -13.332556 -0.000000 16.510457
RightHandThumb1 -24.326973 -0.000000 -32.862282
LeftUpLeg -5.204129 4.701604 3.994994
LeftLeg -1.292056 -0.000000 0.000000
LeftFoot -8.023038 4.497700 -18.885286
LeftToeBase 10.453499 -0.000000 -0.000000
RightUpLeg -6.919437 -7.519323 -1.138685
RightLeg 2.056694 -0.000000 -0.000000
RightFoot -6.417762 -5.693912 -16.043642
RightToeBase 1.236013 -0.000000 -0.000000
3529
root -4.418582 32.989884 -3.706465 9.921158 2.471680 -0.802942
Spine -9.724346 6.182788 2.907845
Head -10.799027 -4.235222 7.319471
LeftShoulder -16.769886 21.662617 23.384614
LeftArm 21.184809 -23.810070 -33.269318
LeftForeArm 16.957102 -0.000000 15.178379
LeftHand -28.701444 -0.000000 -7.091865
LeftHandThumb1 -26.253704 0.000000 33.147579
RightShoulder 339.725602 15.132491 317.412111
RightArm -11.166045 11.899577 27.460441
RightForeArm -32.998815 -0.000000 17.376231
RightHand -13.340457 -0.000000 16.437063
RightHandThumb1 -24.326973 -0.000000 -32.862282
LeftUpLeg -5.181432 4.719214 4.013145
LeftLeg -1.275942 -0.000000 0.000000
LeftFoot -8.029524 4.483824 -18.872371
LeftToeBase 10.416500 -0.000000 -0.000000
RightUpLeg -6.891238 -7.523199 -1.124662
RightLeg 2.059289 -0.000000 -0.000000
RightFoot -6.412133 -5.675209 -16.046100
RightToeBase 1.200416 -0.000000 -0.000000
3530
root -4.423104 32.990049 -3.705925 9.901254 2.469816 -0.816061
Spine -9.732987 6.175561 2.894289
Head -10.834067 -4.325959 7.413897
LeftShoulder -16.745548 21.673849 23.414702
LeftArm 21.222117 -23.881035 -33.299270
LeftForeArm 17.053078 -0.000000 15.244267
LeftHand -29.030135 -0.000000 -7.022940
LeftHandThumb1 -26.253704 0.000000 33.147579
RightShoulder 339.768979 15.166271 317.415746
RightArm -11.180146 11.825461 27.506400
RightForeArm -32.907471 -0.000000 17.408264
RightHand -13.303289 0.000000 16.354621
RightHandThumb1 -24.326973 -0.000000 -32.862282
LeftUpLeg -5.166418 4.698552 4.036619
LeftLeg -1.265375 -0.000000 0.000000
LeftFoot -8.044057 4.499853 -18.920728
LeftToeBase 10.406368 -0.000000 -0.000000
RightUpLeg -6.875138 -7.522146 -1.107289
RightLeg 2.069074 -0.000000 -0.000000
RightFoot -6.419924 -5.668089 -16.038070
RightToeBase 1.225150 -0.000000 -0.000000
